<svg xmlns="http://www.w3.org/2000/svg" viewBox="0 0 32 32" width="512" height="512">
  <defs>
    <!-- Main gradient for the C -->
    <linearGradient id="cGradient" x1="0%" y1="0%" x2="100%" y2="100%">
      <stop offset="0%" stop-color="#00f7be"/>
      <stop offset="100%" stop-color="#008b6e"/>
    </linearGradient>

    <!-- Background gradient -->
    <linearGradient id="bgGradient" x1="0%" y1="0%" x2="100%" y2="100%">
      <stop offset="0%" stop-color="#10201C" stop-opacity="1"/> 
      <stop offset="100%" stop-color="#05100D" stop-opacity="1"/>
    </linearGradient>

    <!-- Chart line gradient -->
    <linearGradient id="chartGradient" x1="0%" y1="0%" x2="100%" y2="0%">
      <stop offset="0%" stop-color="#00c59c"/>
      <stop offset="50%" stop-color="#00e0af"/>
      <stop offset="100%" stop-color="#00ffcc"/>
    </linearGradient>

    <!-- Optimized glow effect for size -->
    <filter id="glow" x="-10%" y="-10%" width="120%" height="120%">
      <feGaussianBlur stdDeviation="2.5" result="blur"/>
      <feComposite in="SourceGraphic" in2="blur" operator="over"/>
    </filter>
  </defs>

  <!-- Background with rounded corners -->
  <rect width="32" height="32" rx="8" ry="8" fill="url(#bgGradient)"/>

  <!-- The stylized 'C' -->
  <path d="M 22 12.5
           C 22 9.5, 19.5 7.5, 16 7.5
           C 12.5 7.5, 10 9.5, 10 12.5
           L 10 19.5
           C 10 22.5, 12.5 24.5, 16 24.5
           C 19.5 24.5, 22 22.5, 22 19.5" 
        fill="none" 
        stroke="url(#cGradient)" 
        stroke-width="4.5" 
        stroke-linecap="round"
        stroke-linejoin="round"/>

  <!-- Chart line -->
  <polyline points="13,18 17,17 20,14 24,10 27,7" 
          fill="none"
          stroke="url(#chartGradient)" 
          stroke-width="2.2"
          stroke-linecap="round"
          stroke-linejoin="round"
          filter="url(#glow)" />
          
  <!-- Arrow -->
  <polyline points="27,7 25,7 27,7 27,9" 
          fill="none"
          stroke="#00ffcc" 
          stroke-width="2.2"
          stroke-linecap="round"
          stroke-linejoin="round" />
</svg>